<svg xmlns="http://www.w3.org/2000/svg" width="20" height="20" viewBox="0 0 20 20"><g><g><path fill="#2b414d" d="M13.448 19.732c-.07-.98-.15-2.195-.155-2.687-.03-.378-.07-1.338-.966-1.951 3.555-.303 5.247-2.305 5.368-4.948.101-1.506-.486-2.83-1.53-3.898a21.806 21.806 0 0 0-.107-3.093c-.801-.235-2.67.77-3.193 1.2-1.101-.435-3.798-.588-5.436 0-1.162-.831-2.485-1.345-3.205-1.202-.665 1.501-.237 2.921-.107 3.09-.858.798-2.053 1.78-1.728 3.835.52 3.015 2.603 4.641 5.958 5.039-.716.15-.836.693-.897.928-2.252.947-2.895-.585-3.18-.983-.946-1.192-1.794-.846-1.847-.827-.05.02-.089.094-.084.13.048.257.563.518.588.54.697.529.956 1.486 1.115 1.758 1 1.675 3.327.98 3.35.995 0 .146-.017 1.38-.031 2.339C3.121 18.817 0 14.877 0 10.184 0 4.559 4.477 0 10 0s10 4.56 10 10.184c0 4.389-2.73 8.117-6.552 9.548z"/></g></g></svg>