<svg xmlns="http://www.w3.org/2000/svg" width="19" height="15" viewBox="0 0 19 15"><g><g><path fill="#fff" d="M19.003 1.78a7.944 7.944 0 0 1-2.24.596A3.817 3.817 0 0 0 18.478.282a7.936 7.936 0 0 1-2.476.918A3.951 3.951 0 0 0 13.156.005c-2.154 0-3.9 1.694-3.9 3.784 0 .297.035.586.102.863A11.184 11.184 0 0 1 1.32.698 3.685 3.685 0 0 0 .793 2.6c0 1.312.688 2.47 1.734 3.15a3.968 3.968 0 0 1-1.766-.474v.048c0 1.833 1.344 3.362 3.128 3.71a4.027 4.027 0 0 1-1.761.065c.496 1.504 1.936 2.597 3.642 2.628a7.971 7.971 0 0 1-4.842 1.62c-.315 0-.625-.018-.93-.053a11.28 11.28 0 0 0 5.977 1.701c7.172 0 11.093-5.767 11.093-10.768 0-.163-.003-.327-.01-.49a7.78 7.78 0 0 0 1.945-1.959z"/></g></g></svg>