<svg xmlns="http://www.w3.org/2000/svg" width="1180" height="621" viewBox="0 0 1180 621"><defs><mask id="y1zrb" width="2" height="2" x="-1" y="-1"><path fill="#fff" d="M20 20h1140v580H20z"/><path d="M26 20h1128a6 6 0 0 1 6 6v568a6 6 0 0 1-6 6H26a6 6 0 0 1-6-6V26a6 6 0 0 1 6-6z"/></mask><filter id="y1zra" width="1210" height="650" x="-15" y="-15" filterUnits="userSpaceOnUse"><feOffset in="SourceGraphic" result="FeOffset1059Out"/><feGaussianBlur in="FeOffset1059Out" result="FeGaussianBlur1060Out" stdDeviation="10 10"/></filter><linearGradient id="y1zrc" x1="590" x2="590" y1="600" y2="20" gradientUnits="userSpaceOnUse"><stop offset="0" stop-opacity=".5"/><stop offset="1" stop-color="#474844" stop-opacity="0"/></linearGradient></defs><g><g opacity=".95"><g filter="url(#y1zra)"><path fill="none" d="M26 20h1128a6 6 0 0 1 6 6v568a6 6 0 0 1-6 6H26a6 6 0 0 1-6-6V26a6 6 0 0 1 6-6z" mask="url(&quot;#y1zrb&quot;)"/><path fill="#000505" fill-opacity=".3" d="M26 20h1128a6 6 0 0 1 6 6v568a6 6 0 0 1-6 6H26a6 6 0 0 1-6-6V26a6 6 0 0 1 6-6z"/></g><path fill="#2b2d2e" d="M26 20h1128a6 6 0 0 1 6 6v568a6 6 0 0 1-6 6H26a6 6 0 0 1-6-6V26a6 6 0 0 1 6-6z"/><path fill="url(#y1zrc)" d="M26 20h1128a6 6 0 0 1 6 6v568a6 6 0 0 1-6 6H26a6 6 0 0 1-6-6V26a6 6 0 0 1 6-6z"/></g></g></svg>